<?xml version="1.0" encoding="UTF-8"?>
<svg version="1.1" xmlns="http://www.w3.org/2000/svg" width="1408" height="768">
<path d="M0 0 C464.64 0 929.28 0 1408 0 C1408 253.44 1408 506.88 1408 768 C943.36 768 478.72 768 0 768 C0 514.56 0 261.12 0 0 Z " fill="#FEFEFE" transform="translate(0,0)"/>
<path d="M0 0 C1.54457886 -0.00459229 1.54457886 -0.00459229 3.12036133 -0.00927734 C4.80488403 0.02431885 4.80488403 0.02431885 6.5234375 0.05859375 C7.70768311 0.07325684 8.89192871 0.08791992 10.11206055 0.10302734 C58.52811901 1.08631706 111.79100669 8.92142806 151.26171875 38.94140625 C153.69701478 40.70102791 153.69701478 40.70102791 156.04296875 40.3984375 C158.04130586 39.42661461 159.56333152 38.35352338 161.2734375 36.93359375 C198.67172744 8.03805734 252.6944035 0.64770502 298.47918701 0.14562988 C299.87432951 0.12938145 301.26941689 0.10724473 302.66436768 0.07897949 C304.62102679 0.04331935 306.5781753 0.03863887 308.53515625 0.03515625 C309.66655029 0.02693848 310.79794434 0.0187207 311.96362305 0.01025391 C314.8984375 0.49609375 314.8984375 0.49609375 317.27172852 2.10400391 C319.44725211 5.30313045 319.35659446 7.38114691 319.2890625 11.23046875 C319.26972656 13.17373047 319.26972656 13.17373047 319.25 15.15625 C319.21658116 16.51954199 319.18272141 17.88282324 319.1484375 19.24609375 C319.12836457 20.62497439 319.11011517 22.00388287 319.09375 23.3828125 C319.04659198 26.75461119 318.98078288 30.12500062 318.8984375 33.49609375 C319.76122314 33.4803833 320.62400879 33.46467285 321.51293945 33.44848633 C324.71653017 33.3973342 327.91991265 33.35973215 331.1237793 33.33129883 C332.50991669 33.31621978 333.89600644 33.29575325 335.28198242 33.26977539 C337.27501896 33.23335659 339.26840473 33.21796357 341.26171875 33.203125 C342.46094971 33.18741455 343.66018066 33.1717041 344.89575195 33.15551758 C347.8984375 33.49609375 347.8984375 33.49609375 349.56233555 34.74007368 C351.25184408 36.96057107 351.27514258 38.1602254 351.27875423 40.93299103 C351.28719418 41.84628032 351.29563412 42.75956962 351.30432981 43.70053434 C351.29831977 44.70528697 351.29230972 45.71003959 351.28611755 46.74523926 C351.29419586 48.34461987 351.29419586 48.34461987 351.30243737 49.97631121 C351.31680198 53.56700547 351.3095922 57.15733549 351.30249023 60.74804688 C351.30818931 63.31502074 351.31515176 65.88199206 351.32328796 68.44895935 C351.3405058 74.70808938 351.34130989 80.96711917 351.33607506 87.22626674 C351.33203796 92.31199277 351.33347143 97.3976891 351.33882332 102.4834137 C351.33957174 103.20651034 351.34032016 103.92960699 351.34109126 104.67461565 C351.3426227 106.14345086 351.34416104 107.61228607 351.34570623 109.08112127 C351.35944186 122.86297568 351.35398595 136.64477337 351.34252102 150.4266265 C351.33258566 163.04389186 351.34553259 175.66101063 351.36945521 188.27825338 C351.39381807 201.2249302 351.40346115 214.17153867 351.39680248 227.11823797 C351.39330422 234.39035651 351.39558227 241.66236225 351.41305351 248.9344635 C351.42927191 255.7700315 351.42463783 262.60531415 351.40574837 269.4408741 C351.40204497 271.95520535 351.40522141 274.46955714 351.41563416 276.98386955 C351.42872578 280.40522539 351.4174013 283.82563426 351.39964294 287.24694824 C351.40924795 288.25170086 351.41885296 289.25645349 351.42874902 290.29165316 C351.41893473 291.20494245 351.40912044 292.11823174 351.39900875 293.05919647 C351.39890141 293.84928714 351.39879408 294.63937781 351.39868349 295.45341063 C350.8984375 297.49609375 350.8984375 297.49609375 349.04237443 299.25032836 C346.17166059 300.91839793 344.11113999 300.86527859 340.79876709 300.8568573 C339.54797363 300.86098129 338.29718018 300.86510529 337.00848389 300.86935425 C335.62511991 300.85873752 334.24175811 300.8478331 332.85839844 300.83666992 C331.39969907 300.83582358 329.94099843 300.83629893 328.4822998 300.83799744 C324.52387329 300.83885854 320.56571924 300.8212143 316.60735607 300.80027556 C312.47004259 300.78152788 308.33272294 300.77975983 304.19537354 300.77619934 C296.36143451 300.76687326 288.52762101 300.74225187 280.69373727 300.71215087 C271.77484763 300.67862438 262.85595202 300.66212526 253.93701506 300.64706457 C235.59075136 300.6157028 217.24460452 300.56293136 198.8984375 300.49609375 C198.59824707 301.438479 198.29805664 302.38086426 197.98876953 303.35180664 C195.00376878 311.95991785 187.1012143 319.66572311 179.19140625 323.96875 C171.20201191 327.71753558 163.91376811 329.87405436 155.0859375 329.80859375 C154.29058594 329.8029541 153.49523437 329.79731445 152.67578125 329.79150391 C140.17006708 329.53352247 129.87330636 324.62584537 120.56640625 316.26953125 C116.2733207 311.70498596 112.27757531 306.67209107 110.8984375 300.49609375 C110.14452602 300.49793734 109.39061455 300.49978092 108.61385727 300.50168037 C90.27805733 300.54582969 71.94226798 300.57893585 53.60642624 300.59971809 C44.73938845 300.6100351 35.87238612 300.62410353 27.00537109 300.64697266 C19.27779245 300.66689355 11.55023949 300.6798071 3.82263589 300.68427074 C-0.26988894 300.68688033 -4.36234031 300.69302279 -8.45484161 300.70755386 C-12.30596167 300.72111723 -16.15697791 300.72531892 -20.00811958 300.72230911 C-21.42227047 300.72285983 -22.83642479 300.72684473 -24.25055504 300.7345047 C-26.18029653 300.74444585 -28.11009358 300.74087326 -30.03985596 300.73660278 C-31.66036802 300.73936816 -31.66036802 300.73936816 -33.31361771 300.74218941 C-36.12354258 300.49415354 -37.7601816 300.0396857 -40.1015625 298.49609375 C-41.26961742 296.15998392 -41.22887021 294.80056902 -41.23299026 292.19786167 C-41.23683141 291.29004682 -41.24067255 290.38223197 -41.2446301 289.44690758 C-41.24376362 288.44313307 -41.24289713 287.43935855 -41.24200439 286.40516663 C-41.24497552 285.34385086 -41.24794664 284.28253509 -41.2510078 283.18905824 C-41.25972538 279.60918528 -41.26120561 276.02934564 -41.26269531 272.44946289 C-41.26732126 269.89249092 -41.27234561 267.33551965 -41.27774048 264.77854919 C-41.29088648 257.81587807 -41.29734986 250.85321798 -41.30175114 243.89053655 C-41.3045115 239.54563414 -41.30874843 235.20073396 -41.31325531 230.85583305 C-41.32544854 218.83318884 -41.33574822 206.81054642 -41.3391304 194.78789616 C-41.33934997 194.01814216 -41.33956953 193.24838816 -41.33979575 192.45530828 C-41.34001403 191.68368439 -41.34023231 190.91206049 -41.3404572 190.11705405 C-41.34090067 188.55337783 -41.34134724 186.98970161 -41.34179688 185.42602539 C-41.3420183 184.65038348 -41.34223973 183.87474158 -41.34246787 183.07559537 C-41.34641802 170.50032851 -41.36387837 157.92511953 -41.3871564 145.34987504 C-41.41084611 132.44844334 -41.42333114 119.54704072 -41.42449832 106.64558691 C-41.42541635 99.398057 -41.43120072 92.15060252 -41.44931793 84.90309334 C-41.4662895 78.08974913 -41.46798944 71.27657288 -41.45917892 64.46320534 C-41.45840471 61.95693326 -41.46280143 59.45065369 -41.47263718 56.94440079 C-41.48524025 53.53409463 -41.47954345 50.12430611 -41.46905518 46.71400452 C-41.47711158 45.71246072 -41.48516798 44.71091693 -41.49346852 43.67902333 C-41.48687868 42.76860073 -41.48028883 41.85817813 -41.4734993 40.92016697 C-41.47409639 40.13257199 -41.47469347 39.34497701 -41.47530866 38.53351551 C-41.00044082 35.9448439 -40.19087086 35.05863773 -38.1015625 33.49609375 C-35.09887695 33.15551758 -35.09887695 33.15551758 -31.46484375 33.203125 C-30.16611328 33.21279297 -28.86738281 33.22246094 -27.52929688 33.23242188 C-26.15754611 33.2574879 -24.78580132 33.28288274 -23.4140625 33.30859375 C-22.03061326 33.32364355 -20.64714849 33.33733145 -19.26367188 33.34960938 C-15.87591043 33.38502152 -12.48893111 33.43441321 -9.1015625 33.49609375 C-9.12250977 32.63854492 -9.14345703 31.78099609 -9.16503906 30.89746094 C-9.23332777 27.70690903 -9.28341763 24.51673029 -9.32128906 21.32568359 C-9.34136892 19.94632695 -9.36863916 18.56705506 -9.40332031 17.18798828 C-9.45199067 15.20252396 -9.47242668 13.21643121 -9.4921875 11.23046875 C-9.51313477 10.03647461 -9.53408203 8.84248047 -9.55566406 7.61230469 C-9.1015625 4.49609375 -9.1015625 4.49609375 -7.39599609 2.10620117 C-4.67325185 0.19552887 -3.30176131 -0.00684519 0 0 Z " fill="#FCFDFD" transform="translate(549.1015625,136.50390625)"/>
<path d="M0 0 C1.54457886 -0.00459229 1.54457886 -0.00459229 3.12036133 -0.00927734 C4.80488403 0.02431885 4.80488403 0.02431885 6.5234375 0.05859375 C7.70768311 0.07325684 8.89192871 0.08791992 10.11206055 0.10302734 C58.52811901 1.08631706 111.79100669 8.92142806 151.26171875 38.94140625 C153.69701478 40.70102791 153.69701478 40.70102791 156.04296875 40.3984375 C158.04130586 39.42661461 159.56333152 38.35352338 161.2734375 36.93359375 C198.67172744 8.03805734 252.6944035 0.64770502 298.47918701 0.14562988 C299.87432951 0.12938145 301.26941689 0.10724473 302.66436768 0.07897949 C304.62102679 0.04331935 306.5781753 0.03863887 308.53515625 0.03515625 C309.66655029 0.02693848 310.79794434 0.0187207 311.96362305 0.01025391 C314.8984375 0.49609375 314.8984375 0.49609375 317.27172852 2.10400391 C319.44725211 5.30313045 319.35659446 7.38114691 319.2890625 11.23046875 C319.26972656 13.17373047 319.26972656 13.17373047 319.25 15.15625 C319.21658116 16.51954199 319.18272141 17.88282324 319.1484375 19.24609375 C319.12836457 20.62497439 319.11011517 22.00388287 319.09375 23.3828125 C319.04659198 26.75461119 318.98078288 30.12500062 318.8984375 33.49609375 C319.76122314 33.4803833 320.62400879 33.46467285 321.51293945 33.44848633 C324.71653017 33.3973342 327.91991265 33.35973215 331.1237793 33.33129883 C332.50991669 33.31621978 333.89600644 33.29575325 335.28198242 33.26977539 C337.27501896 33.23335659 339.26840473 33.21796357 341.26171875 33.203125 C342.46094971 33.18741455 343.66018066 33.1717041 344.89575195 33.15551758 C347.8984375 33.49609375 347.8984375 33.49609375 349.56233555 34.74007368 C351.25184408 36.96057107 351.27514258 38.1602254 351.27875423 40.93299103 C351.28719418 41.84628032 351.29563412 42.75956962 351.30432981 43.70053434 C351.29831977 44.70528697 351.29230972 45.71003959 351.28611755 46.74523926 C351.29419586 48.34461987 351.29419586 48.34461987 351.30243737 49.97631121 C351.31680198 53.56700547 351.3095922 57.15733549 351.30249023 60.74804688 C351.30818931 63.31502074 351.31515176 65.88199206 351.32328796 68.44895935 C351.3405058 74.70808938 351.34130989 80.96711917 351.33607506 87.22626674 C351.33203796 92.31199277 351.33347143 97.3976891 351.33882332 102.4834137 C351.33957174 103.20651034 351.34032016 103.92960699 351.34109126 104.67461565 C351.3426227 106.14345086 351.34416104 107.61228607 351.34570623 109.08112127 C351.35944186 122.86297568 351.35398595 136.64477337 351.34252102 150.4266265 C351.33258566 163.04389186 351.34553259 175.66101063 351.36945521 188.27825338 C351.39381807 201.2249302 351.40346115 214.17153867 351.39680248 227.11823797 C351.39330422 234.39035651 351.39558227 241.66236225 351.41305351 248.9344635 C351.42927191 255.7700315 351.42463783 262.60531415 351.40574837 269.4408741 C351.40204497 271.95520535 351.40522141 274.46955714 351.41563416 276.98386955 C351.42872578 280.40522539 351.4174013 283.82563426 351.39964294 287.24694824 C351.40924795 288.25170086 351.41885296 289.25645349 351.42874902 290.29165316 C351.41893473 291.20494245 351.40912044 292.11823174 351.39900875 293.05919647 C351.39890141 293.84928714 351.39879408 294.63937781 351.39868349 295.45341063 C350.8984375 297.49609375 350.8984375 297.49609375 349.04237443 299.25032836 C346.17166059 300.91839793 344.11113999 300.86527859 340.79876709 300.8568573 C339.54797363 300.86098129 338.29718018 300.86510529 337.00848389 300.86935425 C335.62511991 300.85873752 334.24175811 300.8478331 332.85839844 300.83666992 C331.39969907 300.83582358 329.94099843 300.83629893 328.4822998 300.83799744 C324.52387329 300.83885854 320.56571924 300.8212143 316.60735607 300.80027556 C312.47004259 300.78152788 308.33272294 300.77975983 304.19537354 300.77619934 C296.36143451 300.76687326 288.52762101 300.74225187 280.69373727 300.71215087 C271.77484763 300.67862438 262.85595202 300.66212526 253.93701506 300.64706457 C235.59075136 300.6157028 217.24460452 300.56293136 198.8984375 300.49609375 C198.59824707 301.438479 198.29805664 302.38086426 197.98876953 303.35180664 C195.00376878 311.95991785 187.1012143 319.66572311 179.19140625 323.96875 C171.20201191 327.71753558 163.91376811 329.87405436 155.0859375 329.80859375 C154.29058594 329.8029541 153.49523437 329.79731445 152.67578125 329.79150391 C140.17006708 329.53352247 129.87330636 324.62584537 120.56640625 316.26953125 C116.2733207 311.70498596 112.27757531 306.67209107 110.8984375 300.49609375 C110.14452602 300.49793734 109.39061455 300.49978092 108.61385727 300.50168037 C90.27805733 300.54582969 71.94226798 300.57893585 53.60642624 300.59971809 C44.73938845 300.6100351 35.87238612 300.62410353 27.00537109 300.64697266 C19.27779245 300.66689355 11.55023949 300.6798071 3.82263589 300.68427074 C-0.26988894 300.68688033 -4.36234031 300.69302279 -8.45484161 300.70755386 C-12.30596167 300.72111723 -16.15697791 300.72531892 -20.00811958 300.72230911 C-21.42227047 300.72285983 -22.83642479 300.72684473 -24.25055504 300.7345047 C-26.18029653 300.74444585 -28.11009358 300.74087326 -30.03985596 300.73660278 C-31.66036802 300.73936816 -31.66036802 300.73936816 -33.31361771 300.74218941 C-36.12354258 300.49415354 -37.7601816 300.0396857 -40.1015625 298.49609375 C-41.26961742 296.15998392 -41.22887021 294.80056902 -41.23299026 292.19786167 C-41.23683141 291.29004682 -41.24067255 290.38223197 -41.2446301 289.44690758 C-41.24376362 288.44313307 -41.24289713 287.43935855 -41.24200439 286.40516663 C-41.24497552 285.34385086 -41.24794664 284.28253509 -41.2510078 283.18905824 C-41.25972538 279.60918528 -41.26120561 276.02934564 -41.26269531 272.44946289 C-41.26732126 269.89249092 -41.27234561 267.33551965 -41.27774048 264.77854919 C-41.29088648 257.81587807 -41.29734986 250.85321798 -41.30175114 243.89053655 C-41.3045115 239.54563414 -41.30874843 235.20073396 -41.31325531 230.85583305 C-41.32544854 218.83318884 -41.33574822 206.81054642 -41.3391304 194.78789616 C-41.33934997 194.01814216 -41.33956953 193.24838816 -41.33979575 192.45530828 C-41.34001403 191.68368439 -41.34023231 190.91206049 -41.3404572 190.11705405 C-41.34090067 188.55337783 -41.34134724 186.98970161 -41.34179688 185.42602539 C-41.3420183 184.65038348 -41.34223973 183.87474158 -41.34246787 183.07559537 C-41.34641802 170.50032851 -41.36387837 157.92511953 -41.3871564 145.34987504 C-41.41084611 132.44844334 -41.42333114 119.54704072 -41.42449832 106.64558691 C-41.42541635 99.398057 -41.43120072 92.15060252 -41.44931793 84.90309334 C-41.4662895 78.08974913 -41.46798944 71.27657288 -41.45917892 64.46320534 C-41.45840471 61.95693326 -41.46280143 59.45065369 -41.47263718 56.94440079 C-41.48524025 53.53409463 -41.47954345 50.12430611 -41.46905518 46.71400452 C-41.47711158 45.71246072 -41.48516798 44.71091693 -41.49346852 43.67902333 C-41.48687868 42.76860073 -41.48028883 41.85817813 -41.4734993 40.92016697 C-41.47409639 40.13257199 -41.47469347 39.34497701 -41.47530866 38.53351551 C-41.00044082 35.9448439 -40.19087086 35.05863773 -38.1015625 33.49609375 C-35.09887695 33.15551758 -35.09887695 33.15551758 -31.46484375 33.203125 C-30.16611328 33.21279297 -28.86738281 33.22246094 -27.52929688 33.23242188 C-26.15754611 33.2574879 -24.78580132 33.28288274 -23.4140625 33.30859375 C-22.03061326 33.32364355 -20.64714849 33.33733145 -19.26367188 33.34960938 C-15.87591043 33.38502152 -12.48893111 33.43441321 -9.1015625 33.49609375 C-9.12250977 32.63854492 -9.14345703 31.78099609 -9.16503906 30.89746094 C-9.23332777 27.70690903 -9.28341763 24.51673029 -9.32128906 21.32568359 C-9.34136892 19.94632695 -9.36863916 18.56705506 -9.40332031 17.18798828 C-9.45199067 15.20252396 -9.47242668 13.21643121 -9.4921875 11.23046875 C-9.51313477 10.03647461 -9.53408203 8.84248047 -9.55566406 7.61230469 C-9.1015625 4.49609375 -9.1015625 4.49609375 -7.39599609 2.10620117 C-4.67325185 0.19552887 -3.30176131 -0.00684519 0 0 Z M2.8984375 12.49609375 C2.8984375 91.03609375 2.8984375 169.57609375 2.8984375 250.49609375 C19.2334375 250.99109375 19.2334375 250.99109375 35.8984375 251.49609375 C73.23491472 254.79559639 113.26853282 263.80288668 145.18359375 284.5 C146.85614755 285.66351977 146.85614755 285.66351977 148.8984375 285.49609375 C148.89986252 284.3045015 148.90128754 283.11290924 148.90275574 281.88520813 C148.91942178 270.65815966 148.96218355 259.43147383 149.03052807 248.2046175 C149.06482577 242.43266409 149.08991242 236.66097616 149.09399414 230.88891602 C149.09827104 225.31899955 149.1266839 219.74968222 149.17186928 214.17995262 C149.18486364 212.05452145 149.18914513 209.92901864 149.18459129 207.80355263 C149.17969922 204.82711638 149.20571657 201.85244063 149.23901367 198.8762207 C149.23038803 197.99652618 149.22176239 197.11683167 149.21287537 196.21047974 C149.29725581 191.71405263 149.40426336 190.07195123 152.43965149 186.53483582 C153.25105087 185.86205093 154.06245026 185.18926605 154.8984375 184.49609375 C154.8984375 183.83609375 154.8984375 183.17609375 154.8984375 182.49609375 C155.5584375 182.49609375 156.2184375 182.49609375 156.8984375 182.49609375 C158.2184375 181.17609375 159.5384375 179.85609375 160.8984375 178.49609375 C160.8984375 214.13609375 160.8984375 249.77609375 160.8984375 286.49609375 C167.8284375 282.53609375 167.8284375 282.53609375 174.8984375 278.49609375 C177.68509771 277.06666701 180.43538416 275.67887395 183.2734375 274.37109375 C183.97404297 274.04616943 184.67464844 273.72124512 185.39648438 273.38647461 C206.22887695 263.87714948 206.22887695 263.87714948 216.8984375 263.49609375 C216.8984375 262.83609375 216.8984375 262.17609375 216.8984375 261.49609375 C227.48733013 258.65411576 238.04102862 256.49276712 248.87402344 254.81640625 C251.68054491 254.37234496 254.47581968 253.86779874 257.2734375 253.37109375 C273.73847435 250.8098658 290.221049 251.01726214 306.8984375 250.49609375 C306.8984375 171.95609375 306.8984375 93.41609375 306.8984375 12.49609375 C283.32164255 12.114682 283.32164255 12.114682 260.2109375 14.24609375 C258.97657959 14.42873779 257.74222168 14.61138184 256.47045898 14.79956055 C252.940694 15.33472218 249.41943527 15.9063005 245.8984375 16.49609375 C244.94904297 16.65094238 243.99964844 16.80579102 243.02148438 16.96533203 C216.18499699 21.44966736 189.04017268 30.27180072 166.8984375 46.49609375 C165.88469055 47.19697617 164.8709436 47.89785858 163.82647705 48.61997986 C161.21434791 50.82140521 160.92869806 51.3530546 160.1769104 54.9066925 C160.1968959 56.86194099 160.1968959 56.86194099 160.21728516 58.85668945 C160.216409 59.57918381 160.21553284 60.30167816 160.21463013 61.04606628 C160.21879408 63.42245497 160.26538077 65.79598274 160.3125 68.171875 C160.3236966 69.82381142 160.3322346 71.47576782 160.33822632 73.12773132 C160.36108872 77.46671978 160.41998791 81.80449492 160.4864502 86.14300537 C160.54792965 90.57368558 160.57525331 95.00456268 160.60546875 99.43554688 C160.66973521 108.12295142 160.77208136 116.80937147 160.8984375 125.49609375 C160.2384375 125.49609375 159.5784375 125.49609375 158.8984375 125.49609375 C158.8984375 126.15609375 158.8984375 126.81609375 158.8984375 127.49609375 C158.3209375 127.74359375 157.7434375 127.99109375 157.1484375 128.24609375 C154.56903771 129.67909363 152.83722158 131.28034051 150.8984375 133.49609375 C150.8984375 134.15609375 150.8984375 134.81609375 150.8984375 135.49609375 C150.2384375 135.49609375 149.5784375 135.49609375 148.8984375 135.49609375 C148.92508484 134.46372086 148.95173218 133.43134796 148.97918701 132.36769104 C149.22298542 122.61426828 149.40257981 112.86146721 149.52018356 103.10568333 C149.58268289 98.09039921 149.66736285 93.07758378 149.80371094 88.0637207 C149.93460013 83.21999535 150.00594534 78.37863538 150.03696442 73.53327751 C150.05905164 71.68984673 150.10219028 69.84653836 150.16719818 68.00412178 C150.83469367 58.50213459 150.83469367 58.50213459 147.72307777 49.84225655 C144.54697484 46.65091719 140.88771957 44.5653206 136.8984375 42.49609375 C135.65735191 41.69845747 134.42042225 40.89423574 133.19140625 40.078125 C125.03750759 35.43194124 116.72719429 31.68878071 107.8984375 28.49609375 C106.91012939 28.12919434 106.91012939 28.12919434 105.90185547 27.75488281 C87.20852086 20.86857177 67.80060338 16.76361853 48.0859375 14.12109375 C46.90435059 13.95335449 45.72276367 13.78561523 44.50537109 13.61279297 C30.4982293 11.89411389 17.29755952 12.49609375 2.8984375 12.49609375 Z " fill="#1D3447" transform="translate(549.1015625,136.50390625)"/>
<path d="M0 0 C6.93 0 13.86 0 21 0 C21.00879936 3.99272758 21.00879936 3.99272758 21.01777649 8.06611633 C21.0743607 33.09740963 21.14739761 58.12861593 21.23571491 83.1598177 C21.2807262 96.02995804 21.32012849 108.90007038 21.34643555 121.77026367 C21.3693725 132.98480018 21.4027221 144.19924847 21.44870156 155.41371506 C21.47269194 161.35451623 21.49138254 167.29522971 21.49761391 173.23607826 C21.50363852 178.82321116 21.52354283 184.41011953 21.55427551 189.99716949 C21.56309799 192.05190411 21.56676968 194.10666802 21.56500816 196.16142082 C21.56336659 198.95885428 21.57995864 201.75559406 21.60127258 204.55293274 C21.59642501 205.3729662 21.59157743 206.19299966 21.58658296 207.03788263 C21.6133331 211.24886227 21.6133331 211.24886227 23.31692791 215.00290203 C26.16246499 216.68867608 29.25007691 216.44140625 32.46484375 216.44140625 C33.20483612 216.45357178 33.94482849 216.4657373 34.70724487 216.47827148 C36.29267239 216.50377845 37.87820563 216.52328519 39.46377563 216.53738403 C43.61469486 216.57952872 47.76414095 216.68361353 51.9140625 216.78125 C52.72472672 216.79942276 53.53539093 216.81759552 54.37062073 216.83631897 C84.61852242 217.52981629 116.33918859 223.63714558 144 236 C144.93489258 236.41040527 145.86978516 236.82081055 146.83300781 237.24365234 C158.72232713 242.51089258 169.6469007 248.27766775 179.94140625 256.2890625 C182.85113216 258.24193811 182.85113216 258.24193811 185.9921875 258.0078125 C189.58142803 256.80518385 192.08151671 255.12519441 195.125 252.875 C196.28573735 252.04533939 197.4485364 251.21855634 198.61328125 250.39453125 C199.18900879 249.98541504 199.76473633 249.57629883 200.35791016 249.15478516 C223.84206943 232.6397579 253.99048323 224.6009869 282 220 C282.84771973 219.85578613 283.69543945 219.71157227 284.56884766 219.56298828 C300.36270352 216.96429536 316.1154256 216.55961928 332.0871582 216.46606445 C332.91820068 216.45593826 333.74924316 216.44581207 334.60546875 216.43537903 C336.17917955 216.41639001 337.75309247 216.40929163 339.3269043 216.41581726 C343.1776188 216.38787267 343.1776188 216.38787267 346.69631672 215.00152111 C348.79471778 211.77988432 348.4208381 208.31347203 348.39872742 204.59089661 C348.40537424 203.72262023 348.41202107 202.85434386 348.41886932 201.95975608 C348.43757847 199.03921496 348.43488872 196.11908068 348.43237305 193.19848633 C348.44138537 191.10939451 348.45171128 189.020308 348.46325684 186.93122864 C348.4909151 181.24975547 348.50012333 175.56838239 348.50611091 169.8868506 C348.51547165 163.95306547 348.5416731 158.01935578 348.56611633 152.08561707 C348.60984846 140.84470385 348.63835417 129.60380523 348.66143972 118.36283273 C348.68845545 105.56731642 348.73236915 92.77187575 348.77772844 79.97641337 C348.87067086 53.65098159 348.9417082 27.32552933 349 1 C355.6 1 362.2 1 369 1 C369 81.19 369 161.38 369 244 C296.1875 244.1875 296.1875 244.1875 273.17260742 244.20776367 C266.38142976 244.23762805 266.38142976 244.23762805 259.59028625 244.27412415 C256.55865126 244.29023804 253.52735148 244.29229562 250.49568176 244.28596497 C246.63213878 244.2783529 242.76938863 244.29447447 238.9059912 244.32801688 C237.48591254 244.33626218 236.06575475 244.33606639 234.64568365 244.32660902 C232.73161949 244.31505662 230.81743943 244.33698124 228.90348816 244.36076355 C227.82959933 244.36352893 226.75571051 244.36629431 225.64927959 244.36914349 C222.78236293 244.75338177 222.78236293 244.75338177 221.18864918 247.41763783 C220.60026783 248.6959071 220.60026783 248.6959071 220 250 C219.69578125 250.64582031 219.3915625 251.29164063 219.078125 251.95703125 C218.80484375 252.56933594 218.5315625 253.18164062 218.25 253.8125 C213.62844428 263.09062323 206.34828764 269.04699702 196.8125 272.8125 C187.82559675 275.52406564 177.50637801 274.99826601 169 271 C159.60307264 265.51631362 154.4662248 259.10394869 149.75 249.5 C148.41666667 245.95833333 148.41666667 245.95833333 146 245 C144.07443278 244.89430536 142.14519745 244.85335882 140.21676636 244.84178162 C138.37379376 244.82712058 138.37379376 244.82712058 136.4935894 244.81216335 C135.11926179 244.8062486 133.74493379 244.80042346 132.37060547 244.79467773 C130.90856202 244.78496574 129.4465214 244.77482046 127.98448372 244.76427555 C124.06049978 244.7371758 120.13650461 244.71602575 116.21247864 244.69608307 C112.53363655 244.67649223 108.85483825 244.65156915 105.17602539 244.6270752 C94.40904981 244.5585093 83.64202092 244.49853236 72.875 244.4375 C48.82625 244.293125 24.7775 244.14875 0 244 C0 163.48 0 82.96 0 0 Z " fill="#FAFBFB" transform="translate(519,181)"/>
<path d="M0 0 C1.24457726 -0.00786278 1.24457726 -0.00786278 2.51429749 -0.0158844 C4.26855348 -0.02230571 6.02285253 -0.02096615 7.77709961 -0.01245117 C10.45960325 -0.00394763 13.1399728 -0.03268816 15.82226562 -0.06445312 C17.52734311 -0.06606542 19.23242437 -0.06548706 20.9375 -0.0625 C21.73864731 -0.07373398 22.53979462 -0.08496796 23.36521912 -0.09654236 C26.76014438 -0.05412429 28.99207158 0.02405 31.74851608 2.10270309 C33.99283645 5.03069355 34.0293034 6.56653905 34.01617432 10.22955322 C34.02167297 11.41303345 34.02717163 12.59651367 34.03283691 13.81585693 C34.01845581 15.11057922 34.00407471 16.40530151 33.98925781 17.73925781 C33.98812928 19.11914029 33.98876331 20.49902517 33.99102783 21.87890625 C33.9921757 25.62256216 33.96865515 29.36570564 33.940732 33.10924244 C33.91573024 37.02232581 33.91337733 40.93542086 33.90863037 44.84857178 C33.89619695 52.25757225 33.86337052 59.66633669 33.82323241 67.07523322 C33.77852599 75.51044047 33.75653053 83.94565899 33.73645067 92.38095522 C33.69463809 109.73197512 33.62347354 127.08275046 33.53515625 144.43359375 C40.13515625 144.43359375 46.73515625 144.43359375 53.53515625 144.43359375 C53.53515625 144.76359375 53.53515625 145.09359375 53.53515625 145.43359375 C52.64957031 145.45341309 51.76398437 145.47323242 50.8515625 145.49365234 C30.05098001 145.78664565 30.05098001 145.78664565 9.38476562 147.86669922 C5.12845862 148.49348415 0.86731676 149.00826154 -3.40625 149.5 C-4.1852063 149.59059692 -4.9641626 149.68119385 -5.76672363 149.77453613 C-7.66597461 149.99527762 -9.56539212 150.21458557 -11.46484375 150.43359375 C-11.53487122 131.31901115 -11.58780116 112.20445452 -11.62028027 93.08977032 C-11.63576055 84.2148326 -11.65687219 75.33997451 -11.69116211 66.46508789 C-11.72102899 58.73129261 -11.7404103 50.99755499 -11.74710923 43.26370364 C-11.75102611 39.16725804 -11.76025525 35.0709774 -11.78203392 30.97458458 C-11.80235636 27.1209711 -11.80868623 23.26759096 -11.80416679 19.41392899 C-11.80499391 17.99773835 -11.81098493 16.58154012 -11.82246017 15.16539574 C-11.83733604 13.23533612 -11.83202125 11.30515206 -11.8256073 9.37504578 C-11.82837268 8.29378261 -11.83113806 7.21251944 -11.83398724 6.09849072 C-11.46484375 3.43359375 -11.46484375 3.43359375 -10.17763233 1.58750629 C-7.14468551 -0.45580216 -3.53746175 -0.01292963 0 0 Z " fill="#6C9375" transform="translate(802.46484375,241.56640625)"/>
<path d="M0 0 C0.80317154 0.01123398 1.60634308 0.02246796 2.43385315 0.03404236 C3.26357132 0.03258713 4.09328949 0.0311319 4.94815063 0.02963257 C6.70245373 0.03129205 8.4567713 0.042859 10.21095276 0.06358337 C12.89330595 0.0924938 15.57367742 0.08420318 18.25611877 0.07115173 C19.96120649 0.07739065 21.66628797 0.0857828 23.37135315 0.09654236 C24.17250046 0.09360672 24.97364777 0.09067108 25.79907227 0.08764648 C28.8056722 0.13844039 31.40477654 0.28587165 34.18405151 1.48905945 C37.04314892 4.758401 36.49083207 8.45907647 36.42311096 12.59141541 C36.42369507 13.51844269 36.42427917 14.44546997 36.42488098 15.40058899 C36.42209123 18.46889007 36.39095687 21.53622321 36.3596344 24.60435486 C36.35217519 26.72998524 36.34648075 28.85562249 36.34248352 30.98126221 C36.32720208 36.57920783 36.28789837 42.1767391 36.2436676 47.77452087 C36.20276916 53.48531997 36.1844841 59.19618594 36.1643219 64.90708923 C36.12140677 76.11495369 36.05312489 87.32251046 35.9690094 98.53013611 C35.25873596 98.72349548 34.54846252 98.91685486 33.81666565 99.11607361 C32.89756409 99.37646423 31.97846252 99.63685486 31.0315094 99.90513611 C30.11498596 100.16037048 29.19846252 100.41560486 28.25416565 100.67857361 C25.80155853 101.29673715 25.80155853 101.29673715 24.9690094 103.53013611 C23.37572815 103.68289001 23.37572815 103.68289001 21.7502594 103.83872986 C15.2876713 104.49508646 9.45360843 107.20208474 3.4690094 109.59263611 C2.26502502 110.06507751 1.06104065 110.53751892 -0.1794281 111.02427673 C-3.13328799 112.18472169 -6.08354561 113.35351454 -9.0309906 114.53013611 C-9.10107031 100.25703665 -9.1537742 85.98396387 -9.18642712 71.71072769 C-9.20209718 65.0834126 -9.22336019 58.4562129 -9.25730896 51.82896423 C-9.28985418 45.43585319 -9.30783351 39.04285331 -9.31562233 32.64966583 C-9.32117451 30.20796203 -9.33201625 27.76626446 -9.34818077 25.32460785 C-9.36989032 21.91023509 -9.37296018 18.49632435 -9.37156677 15.08189392 C-9.3823526 14.06769379 -9.39313843 13.05349365 -9.4042511 12.00856018 C-9.40012711 11.07750458 -9.39600311 10.14644897 -9.39175415 9.18717957 C-9.39451953 8.37968891 -9.39728491 7.57219826 -9.40013409 6.74023819 C-8.44130393 0.99961807 -5.45002 0.06838265 0 0 Z " fill="#6E9378" transform="translate(740.0309906005859,296.46986389160156)"/>
<path d="M0 0 C-0.65160972 4.03533973 -1.30906304 8.06968409 -1.97143555 12.10327148 C-2.19496255 13.46923427 -2.41702138 14.83543829 -2.63745117 16.2019043 C-4.09340916 25.21955752 -5.82047263 34.12370664 -8 43 C-15.75 43.125 -15.75 43.125 -18 42 C-18.09770518 36.52850993 -17.69755287 31.4259476 -17 26 C-25.06945644 34.04632066 -33.13623585 42.09531443 -41.19957638 50.14776421 C-44.94349665 53.88645837 -48.68834457 57.62421354 -52.43530273 61.35986328 C-56.04899478 64.96271684 -59.6602626 68.56798371 -63.26983833 72.17496109 C-64.64971812 73.55298837 -66.03048 74.93013296 -67.41212273 76.30639267 C-69.34209027 78.22913708 -71.26894206 80.15495167 -73.19506836 82.08154297 C-73.77121887 82.65409821 -74.34736938 83.22665344 -74.940979 83.81655884 C-77.82673861 86.63825913 -77.82673861 86.63825913 -80 90 C-80.66 90 -81.32 90 -82 90 C-82 90.66 -82 91.32 -82 92 C-83.76941634 93.70047804 -85.66443425 95.20805753 -87.56640625 96.7578125 C-89.55330737 98.5884405 -91.23040494 100.38359791 -92.9765625 102.4296875 C-97.75342571 107.97200374 -102.92797683 113.1140244 -108.09936523 118.28466797 C-109.83150876 120.01903314 -111.5554531 121.76129591 -113.27929688 123.50390625 C-114.37972022 124.60725787 -115.48061416 125.71014039 -116.58203125 126.8125 C-117.09659378 127.33424805 -117.61115631 127.85599609 -118.14131165 128.39355469 C-121.77113122 132 -121.77113122 132 -124 132 C-125.72817863 130.37391292 -127.36113834 128.71339507 -129 127 C-130.25743735 125.73709822 -131.51785993 124.47716492 -132.78051758 123.21948242 C-143.18701172 112.81298828 -153.59350586 102.40649414 -164 92 C-165.10382774 92.93783238 -166.20645621 93.8770764 -167.30859375 94.81689453 C-167.92275146 95.33978058 -168.53690918 95.86266663 -169.16967773 96.40139771 C-171.89441535 98.78118179 -174.45313343 101.30770402 -177 103.875 C-177.48210938 104.35324219 -177.96421875 104.83148438 -178.4609375 105.32421875 C-181.12430841 107.99463561 -183.65228738 110.73596128 -186.10180664 113.60400391 C-190.3365025 118.45941591 -194.86558519 122.99134846 -199.43359375 127.53125 C-200.31153091 128.40777222 -201.18946808 129.28429443 -202.0940094 130.18737793 C-204.87281496 132.96062796 -207.65509397 135.73036282 -210.4375 138.5 C-212.33319865 140.39010805 -214.22809783 142.28101518 -216.12304688 144.171875 C-220.74605189 148.78391004 -225.37190657 153.39307141 -230 158 C-233.32072528 156.42003387 -235.68029835 154.92110579 -238 152 C-237.87386544 147.61667323 -234.45343153 145.09303794 -231.50390625 142.24609375 C-230.95516342 141.70396744 -230.40642059 141.16184113 -229.84104919 140.60328674 C-228.08849246 138.87410968 -226.32609466 137.15541191 -224.5625 135.4375 C-222.80423378 133.71433659 -221.04813568 131.98904206 -219.29466248 130.26100159 C-218.20381227 129.18707866 -217.10989394 128.11626122 -216.0125885 127.04893494 C-213.70830942 124.78988768 -211.79830242 122.69745363 -210 120 C-209.34 120 -208.68 120 -208 120 C-207.75230865 119.42699158 -207.50461731 118.85398315 -207.24942017 118.26361084 C-205.80397834 115.64486186 -204.13094551 113.89087836 -202.00927734 111.78222656 C-201.18857758 110.96167786 -200.36787781 110.14112915 -199.52230835 109.29571533 C-198.63580597 108.41953552 -197.74930359 107.54335571 -196.8359375 106.640625 C-195.92872955 105.73624695 -195.02152161 104.8318689 -194.08682251 103.90008545 C-191.68115581 101.50203542 -189.26954264 99.11005382 -186.85662842 96.71929932 C-184.39297656 94.27614829 -181.93501423 91.82728794 -179.4765625 89.37890625 C-174.65626427 84.58066212 -169.83030157 79.78817268 -165 75 C-161.96299479 76.45046898 -159.90097717 77.8768113 -157.5625 80.3125 C-156.64791016 81.25609375 -156.64791016 81.25609375 -155.71484375 82.21875 C-155.14894531 82.8065625 -154.58304688 83.394375 -154 84 C-152.824375 85.1446875 -152.824375 85.1446875 -151.625 86.3125 C-149.22407506 88.77058982 -146.96031053 91.29914807 -144.6875 93.875 C-141.30655574 97.66524597 -137.80768235 101.01186473 -133.9140625 104.26171875 C-131.17312551 106.75093704 -128.91754201 109.58362951 -126.640625 112.49609375 C-124.87950057 114.45048309 -124.87950057 114.45048309 -121 114 C-118.72189441 112.29189683 -118.72189441 112.29189683 -116.5234375 109.94921875 C-115.688125 109.10552734 -114.8528125 108.26183594 -113.9921875 107.39257812 C-113.12851562 106.49990234 -112.26484375 105.60722656 -111.375 104.6875 C-110.06789063 103.36588867 -110.06789063 103.36588867 -108.734375 102.01757812 C-104.03813007 97.28139231 -104.03813007 97.28139231 -100 92 C-99.34 92 -98.68 92 -98 92 C-97.73055384 91.40551434 -97.46110767 90.81102867 -97.18349648 90.19852829 C-96.00052374 88.00097293 -94.82372184 86.57699491 -93.0640564 84.82354736 C-92.46390213 84.22064377 -91.86374786 83.61774017 -91.2454071 82.99656677 C-90.58869522 82.34704544 -89.93198334 81.69752411 -89.25537109 81.02832031 C-88.56257553 80.3352327 -87.86977997 79.64214508 -87.1559906 78.92805481 C-84.86651526 76.63997201 -82.5700387 74.35905349 -80.2734375 72.078125 C-78.68402291 70.4924408 -77.09504952 68.90631426 -75.50650024 67.31976318 C-71.32532415 63.14622146 -67.13817654 58.97872083 -62.94976807 54.81243896 C-58.67643937 50.55957281 -54.40877027 46.30103581 -50.140625 42.04296875 C-41.76595419 33.68974441 -33.38496557 25.34288952 -25 17 C-25.75128174 17.1429248 -26.50256348 17.28584961 -27.27661133 17.43310547 C-28.2642749 17.61760254 -29.25193848 17.80209961 -30.26953125 17.9921875 C-31.24768799 18.1763623 -32.22584473 18.36053711 -33.23364258 18.55029297 C-36.19375611 19.03149755 -39.00530497 19.16187541 -42 19 C-42.99 13.555 -42.99 13.555 -44 8 C-43.13834229 7.82871582 -42.27668457 7.65743164 -41.38891602 7.48095703 C-38.15145119 6.83689962 -34.9141693 6.19193702 -31.67700195 5.54638672 C-30.28351806 5.26868747 -28.88996495 4.99133535 -27.49633789 4.71435547 C-18.14512856 2.8674025 -18.14512856 2.8674025 -8.83984375 0.8046875 C-5.67913895 0.1423221 -3.18339914 -0.07084155 0 0 Z " fill="#6C9276" transform="translate(819,177)"/>
<path d="M0 0 C1.75 1.2890625 1.75 1.2890625 3.75 3.2890625 C4.08 0.9790625 4.41 -1.3309375 4.75 -3.7109375 C8.71 -3.7109375 12.67 -3.7109375 16.75 -3.7109375 C16.84080452 4.44365805 16.91400347 12.59785259 16.95724869 20.75282001 C16.97801684 24.54056578 17.00613353 28.32794413 17.05175781 32.11547852 C17.09560532 35.77894323 17.11921783 39.44205727 17.12950897 43.10576439 C17.13683135 44.49506326 17.15112787 45.88434557 17.17292023 47.27349281 C17.34615108 58.78658697 16.03024967 68.99000682 7.8125 77.6328125 C-1.57441336 85.17078838 -14.79781396 85.25670788 -26.25 84.2890625 C-33.96868709 82.81272318 -40.2219529 80.3357996 -46.25 75.2890625 C-45.19124926 71.88593512 -44.24097846 69.27553019 -42.25 66.2890625 C-38.43834147 67.71843445 -34.89635353 69.4719583 -31.3125 71.38671875 C-23.68229366 74.72493402 -12.903486 74.73280842 -5.1875 71.7890625 C-0.64258546 69.35549818 2.10411019 66.1863915 3.75 61.2890625 C4.1216355 57.5775974 4.05719524 54.00271163 3.75 50.2890625 C3.069375 50.8871875 2.38875 51.4853125 1.6875 52.1015625 C-4.42140289 56.65074551 -9.61275342 57.82680808 -17.0625 57.7265625 C-17.85640137 57.71826416 -18.65030273 57.70996582 -19.46826172 57.70141602 C-28.80668312 57.43304862 -35.64993052 54.73568675 -42.4921875 48.28125 C-46.81105463 43.38653392 -49.85499912 37.87241055 -50.25 31.2890625 C-50.311875 30.47695313 -50.37375 29.66484375 -50.4375 28.828125 C-50.83741867 19.90493968 -48.68592719 12.96007441 -43.0625 5.9765625 C-32.46094141 -5.31044169 -13.3144002 -7.90542512 0 0 Z " fill="#1A3044" transform="translate(948.25,539.7109375)"/>
<path d="M0 0 C4.95 0 9.9 0 15 0 C15 29.37 15 58.74 15 89 C10.38 89 5.76 89 1 89 C1 86.69 1 84.38 1 82 C0.41992188 82.40992188 -0.16015625 82.81984375 -0.7578125 83.2421875 C-1.53898438 83.78101563 -2.32015625 84.31984375 -3.125 84.875 C-3.89070312 85.40867187 -4.65640625 85.94234375 -5.4453125 86.4921875 C-12.90415887 90.89450355 -21.57421585 91.08374346 -30 90 C-33.75599924 88.83765752 -36.77406358 87.22669799 -40 85 C-40.58136719 84.62746094 -41.16273438 84.25492188 -41.76171875 83.87109375 C-47.83378495 79.48146403 -51.07893149 72.03825098 -53 65 C-54.18462622 54.66203958 -53.72854982 45.40226919 -47.421875 36.86328125 C-41.87630233 30.10617581 -36.56610097 26.03869626 -28 24 C-19.48068586 23.21556636 -11.30875013 23.07811647 -4 28 C-3.01 28.99 -2.02 29.98 -1 31 C-0.67 20.77 -0.34 10.54 0 0 Z " fill="#182F44" transform="translate(569,511)"/>
<path d="M0 0 C3.63 0 7.26 0 11 0 C11 29.37 11 58.74 11 89 C7.37 89 3.74 89 0 89 C-0.495 85.04 -0.495 85.04 -1 81 C-1.40089844 81.39832031 -1.80179688 81.79664063 -2.21484375 82.20703125 C-9.60271405 89.09232534 -16.85088853 90.60043039 -26.84765625 90.35546875 C-31.47397081 89.83379016 -35.0133843 88.3336287 -39 86 C-40.5778125 85.13375 -40.5778125 85.13375 -42.1875 84.25 C-48.6417882 79.08656944 -53.16081462 72.09413296 -54.30102539 63.81396484 C-54.4361948 61.55417127 -54.46814045 59.32603287 -54.4375 57.0625 C-54.42920166 56.27053223 -54.42090332 55.47856445 -54.41235352 54.66259766 C-54.14599726 45.4624062 -51.17366441 39.52641351 -44.9375 32.79296875 C-37.13211497 25.56984027 -29.61415867 24.55693495 -19.33203125 24.7109375 C-13.3189365 24.96914456 -7.85964296 26.54070705 -3.2421875 30.51171875 C-2 32 -2 32 -2 34 C-1.34 34 -0.68 34 0 34 C0 22.78 0 11.56 0 0 Z " fill="#192F43" transform="translate(872,511)"/>
<path d="M0 0 C5.46092565 4.95593682 8.57354062 11.54484062 10.87890625 18.4609375 C10.87890625 22.7509375 10.87890625 27.0409375 10.87890625 31.4609375 C-5.95109375 31.4609375 -22.78109375 31.4609375 -40.12109375 31.4609375 C-36.49173304 38.71965891 -34.40636048 42.46786463 -27.12109375 45.4609375 C-19.57494996 46.22952622 -12.93074484 45.86576305 -6.12109375 42.4609375 C-5.089813 41.49322885 -4.08105135 40.49943709 -3.12109375 39.4609375 C0.69443242 40.95989421 2.41635671 43.2596231 4.87890625 46.4609375 C5.86890625 46.9559375 5.86890625 46.9559375 6.87890625 47.4609375 C5.52064248 50.6919589 4.2478549 52.21633303 1.25390625 54.0234375 C0.62226562 54.41660156 -0.009375 54.80976562 -0.66015625 55.21484375 C-7.11652757 58.48402224 -12.67637969 59.99923214 -19.93359375 59.8984375 C-20.72185547 59.88868896 -21.51011719 59.87894043 -22.32226562 59.86889648 C-32.96075163 59.5470801 -40.23038154 56.39236068 -47.953125 48.9765625 C-54.64202994 41.21502235 -56.49124288 33.11813831 -56.3984375 23.10546875 C-55.76323309 14.75834602 -51.91703633 7.44964978 -46.12109375 1.4609375 C-33.03355261 -9.46558108 -13.8850345 -10.07496058 0 0 Z " fill="#1A3145" transform="translate(654.12109375,541.5390625)"/>
<path d="M0 0 C7.26 0 14.52 0 22 0 C22 44.55 22 89.1 22 135 C6 137 6 137 0 137 C0 91.79 0 46.58 0 0 Z " fill="#F8FBF9" transform="translate(802,253)"/>
<path d="M0 0 C5.35949515 4.43244734 8.57324322 8.47177071 9.73046875 15.41796875 C9.81192632 16.9824688 9.84840713 18.54984208 9.84399414 20.11645508 C9.84391861 21.01701126 9.84384308 21.91756744 9.84376526 22.84541321 C9.83860397 23.80392685 9.83344269 24.76244049 9.828125 25.75 C9.82671005 26.74174728 9.8252951 27.73349457 9.82383728 28.7552948 C9.81825293 31.91371718 9.80570327 35.0720679 9.79296875 38.23046875 C9.78795173 40.37565002 9.78338917 42.5208324 9.77929688 44.66601562 C9.76828862 49.91669415 9.75103472 55.16731931 9.73046875 60.41796875 C4.78046875 60.41796875 -0.16953125 60.41796875 -5.26953125 60.41796875 C-5.59953125 58.76796875 -5.92953125 57.11796875 -6.26953125 55.41796875 C-7.56890625 56.34609375 -7.56890625 56.34609375 -8.89453125 57.29296875 C-16.86692907 62.31262664 -25.17936332 62.16246178 -34.26953125 61.41796875 C-39.73048341 59.92568493 -43.70394412 56.79854723 -47.26953125 52.41796875 C-50.16786412 47.12101557 -50.83070169 43.31025841 -50.26953125 37.41796875 C-48.44354432 32.04741896 -45.01011347 28.41334548 -40.26953125 25.41796875 C-33.12870657 21.91740337 -26.62174479 22.06220703 -18.76953125 22.23046875 C-16.96355469 22.25077148 -16.96355469 22.25077148 -15.12109375 22.27148438 C-12.17010152 22.30661523 -9.22005713 22.35580879 -6.26953125 22.41796875 C-6.55362505 20.95788056 -6.84868747 19.49992336 -7.1484375 18.04296875 C-7.31158447 17.23085938 -7.47473145 16.41875 -7.64282227 15.58203125 C-8.13735945 13.24188546 -8.13735945 13.24188546 -10.20703125 11.41796875 C-17.33633403 7.9613371 -26.44570663 8.24957789 -33.92578125 10.53515625 C-36.76977353 11.73369585 -39.53357446 12.9913991 -42.26953125 14.41796875 C-43.11067296 12.98502377 -43.94218812 11.5464247 -44.76953125 10.10546875 C-45.23359375 9.30496094 -45.69765625 8.50445313 -46.17578125 7.6796875 C-47.26953125 5.41796875 -47.26953125 5.41796875 -47.26953125 2.41796875 C-45.3776065 1.43127116 -43.48081147 0.45390855 -41.58203125 -0.51953125 C-39.99841797 -1.33744141 -39.99841797 -1.33744141 -38.3828125 -2.171875 C-27.72053179 -7.00133966 -9.7094016 -6.76817151 0 0 Z " fill="#1B3246" transform="translate(492.26953125,539.58203125)"/>
<path d="M0 0 C7.94672325 4.88677809 11.53003649 10.75794451 15.3515625 19.12890625 C16.0390625 22.25390625 16.0390625 22.25390625 16.0390625 33.25390625 C-1.4509375 33.25390625 -18.9409375 33.25390625 -36.9609375 33.25390625 C-31.51350104 44.21842485 -31.51350104 44.21842485 -22.1484375 50.62890625 C-13.68551135 52.28830353 -6.58848547 51.43856101 1.0390625 47.25390625 C2.77999634 45.71287536 2.77999634 45.71287536 4.0390625 44.25390625 C7.37623799 45.63480645 9.26207286 47.07403005 11.0390625 50.25390625 C10.90234375 52.19140625 10.90234375 52.19140625 10.0390625 54.25390625 C0.73033796 61.70801901 -9.32870969 63.27204435 -20.9609375 62.25390625 C-31.56322209 59.87985779 -38.93910718 54.58141131 -44.734375 45.5 C-49.24166712 37.24620073 -49.25599898 27.3182061 -47.30859375 18.19921875 C-44.0079867 9.10484225 -37.5094696 2.5839236 -28.9609375 -1.74609375 C-20.43079727 -4.58947383 -8.06562651 -3.9773794 0 0 Z " fill="#192F43" transform="translate(1027.9609375,538.74609375)"/>
<path d="M0 0 C1.0725 0.680625 2.145 1.36125 3.25 2.0625 C7.55841727 6.02624389 10.39772392 11.44885201 12 17 C12 21.62 12 26.24 12 31 C-5.16 31 -22.32 31 -40 31 C-34.54761977 41.99810149 -34.54761977 41.99810149 -25.125 48.375 C-16.70754098 50.0584918 -9.73981908 48.79378017 -2 45 C-0.22322215 43.47089926 -0.22322215 43.47089926 1 42 C4.33717549 43.3809002 6.22301036 44.8201238 8 48 C7.85546875 49.9375 7.85546875 49.9375 7 52 C-1.43147308 58.99276934 -11.00408844 60.58247433 -21.66015625 60.37109375 C-31.42040333 59.28662185 -39.61674178 54.35697558 -46 47 C-51.95147216 37.74215442 -52.04846883 27.66212145 -51 17 C-48.73756163 8.60970164 -42.76199309 2.1840988 -35.5 -2.375 C-24.42542165 -7.51676852 -10.06747074 -6.78748498 0 0 Z " fill="#193044" transform="translate(795,541)"/>
<path d="M0 0 C24.09 0 48.18 0 73 0 C73 4.62 73 9.24 73 14 C63.76 14 54.52 14 45 14 C45 37.76 45 61.52 45 86 C39.39 86 33.78 86 28 86 C28 62.24 28 38.48 28 14 C18.76 14 9.52 14 0 14 C0 9.38 0 4.76 0 0 Z " fill="#21384C" transform="translate(314,515)"/>
<path d="M0 0 C7.26 0 14.52 0 22 0 C22 29.7 22 59.4 22 90 C3 97 3 97 0 97 C0 64.99 0 32.98 0 0 Z " fill="#F9FCFA" transform="translate(743,308)"/>
<path d="M0 0 C5.01844088 2.25732959 8.59830269 5.79883928 11.6484375 10.34765625 C13.73583546 16.60985012 13.92187303 26.2160405 11.4609375 32.47265625 C8.07630765 37.84137946 4.47062211 40.87531709 -1.3515625 43.34765625 C-7.31897277 44.10814137 -14.02374074 44.56990495 -19.4765625 41.66015625 C-25.54863935 36.77609443 -28.74067245 31.39669932 -29.67578125 23.66796875 C-29.92833812 17.38017353 -29.17879591 12.44691476 -25.3515625 7.34765625 C-18.12974266 -0.17577092 -10.39443471 -2.88350597 0 0 Z " fill="#FAFBFB" transform="translate(858.3515625,546.65234375)"/>
<path d="M0 0 C3.96 0 7.92 0 12 0 C12 24.42 12 48.84 12 74 C26.85 74 41.7 74 57 74 C57 77.63 57 81.26 57 85 C38.19 85 19.38 85 0 85 C0 56.95 0 28.9 0 0 Z " fill="#1E3448" transform="translate(681,515)"/>
<path d="M0 0 C4.87332057 2.91278931 8.9224818 6.9855886 11.4765625 12.09375 C12.84697969 26.2836394 12.84697969 26.2836394 8.8515625 31.78125 C4.12210575 36.91226439 -0.54541724 39.67304906 -7.44140625 40.40234375 C-14.42207474 40.67756724 -19.10426348 40.22076333 -24.71484375 35.88671875 C-27.43705709 33.18802346 -28.91783884 30.5725471 -30.5234375 27.09375 C-30.8534375 26.43375 -31.1834375 25.77375 -31.5234375 25.09375 C-32.2459349 18.05828352 -32.0212022 11.80005535 -27.5234375 6.09375 C-19.88167623 -0.94835596 -10.16929214 -3.65212969 0 0 Z " fill="#F9FAFB" transform="translate(941.5234375,546.90625)"/>
<path d="M0 0 C0 4.62 0 9.24 0 14 C-1.98 14.0928125 -1.98 14.0928125 -4 14.1875 C-9.13276083 14.77756542 -13.23521609 16.40451044 -17 20 C-20.73579902 25.48265741 -21.5992321 29.43243261 -21.609375 35.99609375 C-21.62591125 36.82963882 -21.64244751 37.6631839 -21.65948486 38.52198792 C-21.70771714 41.16056873 -21.72927987 43.79857432 -21.75 46.4375 C-21.77818052 48.23635668 -21.80811085 50.03518685 -21.83984375 51.83398438 C-21.91346895 56.22260883 -21.96319429 60.61091859 -22 65 C-27.28 65 -32.56 65 -38 65 C-38 43.88 -38 22.76 -38 1 C-33.05 1 -28.1 1 -23 1 C-22.67 3.31 -22.34 5.62 -22 8 C-21.154375 7.236875 -20.30875 6.47375 -19.4375 5.6875 C-13.22881973 0.58129567 -7.8152546 -0.36070406 0 0 Z " fill="#1A3146" transform="translate(434,535)"/>
<path d="M0 0 C4.7261413 2.75691576 7.6932433 6.5181916 9.75 11.5625 C11.05921177 19.13578658 9.96510046 26.09568463 5.75 32.5625 C1.34613721 37.08225391 -3.48470532 38.62156818 -9.6875 38.9375 C-15.17310556 38.78998792 -18.88950505 36.90464914 -22.7578125 33.06640625 C-26.99500459 28.21179474 -27.44413151 24.54844948 -27.5625 18.25 C-27.59988281 16.95449219 -27.63726563 15.65898438 -27.67578125 14.32421875 C-27.05800769 8.86627434 -24.44463219 5.1443534 -20.1875 1.75 C-14.33142469 -2.61090714 -6.69510749 -2.83800318 0 0 Z " fill="#F8FAFB" transform="translate(559.25,549.4375)"/>
<path d="M0 0 C3.63 0 7.26 0 11 0 C11.33 2.64 11.66 5.28 12 8 C12.61488281 7.50628906 13.22976563 7.01257813 13.86328125 6.50390625 C14.67152344 5.86324219 15.47976563 5.22257813 16.3125 4.5625 C17.11300781 3.92441406 17.91351562 3.28632812 18.73828125 2.62890625 C22.25422451 0.09669841 24.97650305 -0.11718827 29.1875 -0.0625 C31.5696875 -0.0315625 31.5696875 -0.0315625 34 0 C34 3.63 34 7.26 34 11 C31.710625 11.12375 31.710625 11.12375 29.375 11.25 C23.17315809 11.86404375 19.15082028 14.41513598 15 19 C12.36777101 24.7760754 11.54069024 29.57567849 11.48828125 35.875 C11.47033005 36.68493408 11.45237885 37.49486816 11.43388367 38.3293457 C11.38021475 40.88617935 11.34602636 43.44283112 11.3125 46 C11.27928842 47.74611883 11.24479527 49.49221379 11.20898438 51.23828125 C11.12451413 55.49205525 11.05749805 59.74577941 11 64 C7.37 64 3.74 64 0 64 C0 42.88 0 21.76 0 0 Z " fill="#162E42" transform="translate(1059,536)"/>
<path d="M0 0 C3.37839712 2.23457681 5.1124077 3.98306388 7.23828125 7.48046875 C7.73328125 11.44046875 7.73328125 11.44046875 8.23828125 15.48046875 C-5.29171875 15.48046875 -18.82171875 15.48046875 -32.76171875 15.48046875 C-31.39715133 7.29306421 -28.24394319 3.24291936 -21.76171875 -1.51953125 C-14.42877261 -5.68147365 -7.0011692 -3.88711883 0 0 Z " fill="#F2F4F5" transform="translate(1023.76171875,548.51953125)"/>
<path d="M0 0 C3.82844613 2.804936 6.46818127 6.32229694 8.30859375 10.69140625 C8.30859375 12.34140625 8.30859375 13.99140625 8.30859375 15.69140625 C-5.22140625 15.69140625 -18.75140625 15.69140625 -32.69140625 15.69140625 C-30.72510268 7.82619195 -29.45291755 4.79580017 -23.69140625 -0.30859375 C-15.60504729 -5.10051017 -8.05504701 -4.41079797 0 0 Z " fill="#F2F4F5" transform="translate(787.69140625,548.30859375)"/>
<path d="M0 0 C4.02392173 2.37981938 7.2589488 5.01670728 9.71875 9.05078125 C10.21375 12.02078125 10.21375 12.02078125 10.71875 15.05078125 C-1.16125 15.05078125 -13.04125 15.05078125 -25.28125 15.05078125 C-24.19175885 8.51383434 -22.91436525 6.36775452 -18.28125 2.05078125 C-12.8718968 -1.76035396 -6.1579512 -2.56229819 0 0 Z " fill="#F2F5F6" transform="translate(639.28125,547.94921875)"/>
<path d="M0 0 C0.98613281 0.00322266 1.97226562 0.00644531 2.98828125 0.00976562 C4.02082031 0.01814453 5.05335938 0.02652344 6.1171875 0.03515625 C7.67759766 0.04192383 7.67759766 0.04192383 9.26953125 0.04882812 C11.84380712 0.06063673 14.41796896 0.0771055 16.9921875 0.09765625 C17.25233809 6.62507106 16.31269105 10.22886545 11.9921875 15.09765625 C6.67795319 18.43207778 1.12556394 19.03582074 -5.0078125 18.09765625 C-8.11519195 16.76323725 -10.45732728 15.19862668 -12.0078125 12.09765625 C-12.3828125 8.72265625 -12.3828125 8.72265625 -12.0078125 5.09765625 C-8.10973005 1.1995738 -5.39151082 -0.03098569 0 0 Z " fill="#F1F4F6" transform="translate(470.0078125,571.90234375)"/>
<path d="M0 0 C0.99 0.33 1.98 0.66 3 1 C-7 11 -7 11 -9.6015625 13.59375 C-11.06148041 15.05842334 -12.51305341 16.53156035 -13.94921875 18.01953125 C-14.52285156 18.61121094 -15.09648438 19.20289063 -15.6875 19.8125 C-16.26886719 20.41707031 -16.85023438 21.02164063 -17.44921875 21.64453125 C-19 23 -19 23 -21 23 C-21.185625 23.70125 -21.37125 24.4025 -21.5625 25.125 C-23.26666621 28.53333242 -25.26947934 30.09789001 -28.1953125 32.453125 C-29.91610829 33.92809282 -31.27804504 35.41911552 -32.6875 37.1875 C-34.67529703 39.60509098 -36.41764485 41.2784299 -39 43 C-39.66 42.34 -40.32 41.68 -41 41 C-27.47 27.47 -13.94 13.94 0 0 Z " fill="#75947D" transform="translate(786,202)"/>
<path d="M0 0 C0.66 0 1.32 0 2 0 C2 4.29 2 8.58 2 13 C-15.49 13.33 -32.98 13.66 -51 14 C-51 13.01 -51 12.02 -51 11 C-34.17 11 -17.34 11 0 11 C0 7.37 0 3.74 0 0 Z " fill="#2B3B49" transform="translate(663,560)"/>
<path d="M0 0 C1.15941038 3.47823115 0.70820884 5.45895578 0 9 C-1.32 8.34 -2.64 7.68 -4 7 C-21.16 24.16 -38.32 41.32 -56 59 C-56.66 58.67 -57.32 58.34 -58 58 C-38.86 38.86 -19.72 19.72 0 0 Z " fill="#DBE8DF" transform="translate(802,202)"/>
<path d="M0 0 C0 0.99 0 1.98 0 3 C-2 4.6875 -2 4.6875 -4 6 C-2.84826645 3.53199953 -1.95216435 1.95216435 0 0 Z M-6 6 C-5.34 6 -4.68 6 -4 6 C-5.43258772 9.27196452 -7.18825316 11.43203956 -9.71533203 13.94238281 C-10.47596954 14.70286926 -11.23660706 15.46335571 -12.02029419 16.24688721 C-12.84117523 17.05744568 -13.66205627 17.86800415 -14.5078125 18.703125 C-15.34843231 19.54091492 -16.18905212 20.37870483 -17.05514526 21.24188232 C-19.74044001 23.91598431 -22.43260655 26.58304724 -25.125 29.25 C-26.94707155 31.06204062 -28.76869177 32.87453518 -30.58984375 34.6875 C-35.05467252 39.13028036 -39.52516283 43.56730165 -44 48 C-44.66 47.67 -45.32 47.34 -46 47 C-45.12786865 46.13310547 -44.2557373 45.26621094 -43.35717773 44.37304688 C-40.09122598 41.12533208 -36.82869701 37.87419673 -33.56713867 34.62207031 C-32.16082925 33.22075867 -30.75361978 31.82034964 -29.34545898 30.42089844 C-27.30990344 28.39760962 -25.27771469 26.37098872 -23.24609375 24.34375 C-22.62600937 23.7288269 -22.00592499 23.11390381 -21.36705017 22.48034668 C-17.5587903 18.67256614 -14.00183842 14.7410142 -10.56947327 10.58947754 C-9 9 -9 9 -6 8 C-6 7.34 -6 6.68 -6 6 Z " fill="#EEFAF1" transform="translate(743,261)"/>
<path d="M0 0 C3.33717549 1.3809002 5.22301036 2.8201238 7 6 C7 8.0625 7 8.0625 6 10 C3.4375 11.75 3.4375 11.75 1 13 C0.34 10.69 -0.32 8.38 -1 6 C-1.66 6 -2.32 6 -3 6 C-4.33783393 5.68521554 -5.67203709 5.35412344 -7 5 C-6.030625 4.360625 -5.06125 3.72125 -4.0625 3.0625 C-1.23963731 1.3034741 -1.23963731 1.3034741 0 0 Z " fill="#1D3243" transform="translate(1032,583)"/>
<path d="M0 0 C1.15941038 3.47823115 0.70820884 5.45895578 0 9 C-1.32 8.34 -2.64 7.68 -4 7 C-10.27 13.27 -16.54 19.54 -23 26 C-23.66 25.67 -24.32 25.34 -25 25 C-16.75 16.75 -8.5 8.5 0 0 Z " fill="#E7F3EA" transform="translate(802,202)"/>
<path d="M0 0 C0 4.38309978 -1.2875599 6.22818989 -4.25 9.4375 C-7.08707553 12.08113856 -9.99327222 14.55266344 -13 17 C-13.66 16.34 -14.32 15.68 -15 15 C-10.05 10.05 -5.1 5.1 0 0 Z " fill="#7D9A85" transform="translate(760,228)"/>
<path d="M0 0 C0.66 0.99 1.32 1.98 2 3 C1.67 3.66 1.34 4.32 1 5 C0.34 5 -0.32 5 -1 5 C-1.226875 5.556875 -1.45375 6.11375 -1.6875 6.6875 C-3.37550036 9.66159588 -5.46676517 11.72008865 -8 14 C-8.66 14 -9.32 14 -10 14 C-10 13.34 -10 12.68 -10 12 C-9.34 12 -8.68 12 -8 12 C-8.33 11.01 -8.66 10.02 -9 9 C-8.01 8.67 -7.02 8.34 -6 8 C-5.31513275 6.67592331 -4.65129797 5.34090759 -4 4 C-2.70529025 2.62913085 -1.37849103 1.28659163 0 0 Z " fill="#7A9A83" transform="translate(727,261)"/>
<path d="M0 0 C1.59752849 0.00031727 3.19507824 0.01165096 4.79248047 0.03173828 C6.05341019 0.03598312 6.05341019 0.03598312 7.33981323 0.04031372 C10.02990843 0.05152648 12.71967307 0.07663275 15.40966797 0.10205078 C17.23127775 0.11207918 19.05289274 0.12120527 20.87451172 0.12939453 C25.34469155 0.15146937 29.81462368 0.18600644 34.28466797 0.22705078 C34.28466797 0.55705078 34.28466797 0.88705078 34.28466797 1.22705078 C33.20983154 1.23639648 32.13499512 1.24574219 31.02758789 1.25537109 C27.04083769 1.29523493 23.05486217 1.36098251 19.06860352 1.43457031 C17.34311879 1.46280109 15.61750423 1.48400518 13.8918457 1.49804688 C11.41143223 1.5194482 8.93258307 1.56607995 6.45263672 1.61767578 C5.29467842 1.61951874 5.29467842 1.61951874 4.11332703 1.62139893 C-0.29504072 1.71558864 -0.29504072 1.71558864 -3.72583008 4.26513672 C-4.05236572 4.91256836 -4.37890137 5.56 -4.71533203 6.22705078 C-5.34033203 4.35205078 -5.34033203 4.35205078 -5.71533203 2.22705078 C-3.71533203 0.22705078 -3.71533203 0.22705078 0 0 Z " fill="#809987" transform="translate(737.71533203125,296.77294921875)"/>
<path d="M0 0 C0 4.810386 -3.23565902 7.19646204 -6.4375 10.5625 C-8.85995669 12.86678807 -11.35407885 14.95886083 -14 17 C-14.66 16.67 -15.32 16.34 -16 16 C-10.72 10.72 -5.44 5.44 0 0 Z " fill="#7E9B86" transform="translate(744,244)"/>
<path d="M0 0 C0 0.99 0 1.98 0 3 C-2 4.6875 -2 4.6875 -4 6 C-2.84826645 3.53199953 -1.95216435 1.95216435 0 0 Z M-6 6 C-5.34 6 -4.68 6 -4 6 C-5.47721422 9.45201639 -7.43794001 11.64961936 -10.125 14.25 C-10.84945312 14.95640625 -11.57390625 15.6628125 -12.3203125 16.390625 C-12.87460937 16.92171875 -13.42890625 17.4528125 -14 18 C-14.33 17.01 -14.66 16.02 -15 15 C-13.88121617 13.82737096 -12.75476949 12.66204862 -11.625 11.5 C-10.68527344 10.52546875 -10.68527344 10.52546875 -9.7265625 9.53125 C-8 8 -8 8 -6 8 C-6 7.34 -6 6.68 -6 6 Z " fill="#DEEBE3" transform="translate(743,261)"/>
<path d="M0 0 C0.99 0.33 1.98 0.66 3 1 C-3.15034169 8.48291572 -3.15034169 8.48291572 -7 11 C-6.68232368 5.59950264 -3.80003673 3.47662935 0 0 Z " fill="#EEFAF1" transform="translate(766,218)"/>
<path d="M0 0 C2.62561109 -0.08074203 5.24875676 -0.1403623 7.875 -0.1875 C8.99455078 -0.22520508 8.99455078 -0.22520508 10.13671875 -0.26367188 C12.3046875 -0.29296875 12.3046875 -0.29296875 16 0 C16.66 0.99 17.32 1.98 18 3 C18.66 3.66 19.32 4.32 20 5 C18.35 6.32 16.7 7.64 15 9 C15 6.36 15 3.72 15 1 C10.05 1 5.1 1 0 1 C0 0.67 0 0.34 0 0 Z " fill="#C9D3DA" transform="translate(396,535)"/>
<path d="M0 0 C-1.1427919 1.16964602 -2.28931715 2.33564556 -3.4375 3.5 C-4.07558594 4.1496875 -4.71367188 4.799375 -5.37109375 5.46875 C-7 7 -7 7 -8 7 C-8 4.69 -8 2.38 -8 0 C-4.90645403 -0.99435406 -3.09720845 -0.87840996 0 0 Z " fill="#D9EADD" transform="translate(795,194)"/>
<path d="M0 0 C0.66 0.99 1.32 1.98 2 3 C1.51789062 3.39832031 1.03578125 3.79664063 0.5390625 4.20703125 C-0.09257813 4.73683594 -0.72421875 5.26664062 -1.375 5.8125 C-2.00148438 6.33457031 -2.62796875 6.85664063 -3.2734375 7.39453125 C-5.2221048 9.08225739 -5.2221048 9.08225739 -7 12 C-7.74609375 10.265625 -7.74609375 10.265625 -8 8 C-6.34765625 5.859375 -6.34765625 5.859375 -4.0625 3.75 C-3.31097656 3.04359375 -2.55945313 2.3371875 -1.78515625 1.609375 C-1.19605469 1.07828125 -0.60695313 0.5471875 0 0 Z " fill="#799882" transform="translate(589,318)"/>
<path d="M0 0 C0.33 0.99 0.66 1.98 1 3 C-2.83314543 8.63697858 -2.83314543 8.63697858 -6.8125 9.875 C-7.8953125 9.936875 -7.8953125 9.936875 -9 10 C-8.06409496 8.8944811 -7.12620142 7.79064547 -6.1875 6.6875 C-5.66542969 6.07261719 -5.14335938 5.45773437 -4.60546875 4.82421875 C-3.12827531 3.14575321 -1.59960869 1.56117966 0 0 Z " fill="#7D9B85" transform="translate(637,269)"/>
<path d="M0 0 C1.32 0.66 2.64 1.32 4 2 C4 2.99 4 3.98 4 5 C3.01 4.67 2.02 4.34 1 4 C0.0409375 4.495 0.0409375 4.495 -0.9375 5 C-3 6 -3 6 -5.25 5.625 C-5.8275 5.41875 -6.405 5.2125 -7 5 C-6.030625 4.360625 -5.06125 3.72125 -4.0625 3.0625 C-1.23963731 1.3034741 -1.23963731 1.3034741 0 0 Z " fill="#303F4E" transform="translate(1032,583)"/>
<path d="M0 0 C1.0625 1.8125 1.0625 1.8125 2 4 C1.67 4.99 1.34 5.98 1 7 C-0.98 7 -2.96 7 -5 7 C-3.70700306 4.11562221 -2.34058637 2.12780579 0 0 Z " fill="#112639" transform="translate(733,441)"/>
<path d="M0 0 C0.33 0.99 0.66 1.98 1 3 C1.99 2.67 2.98 2.34 4 2 C4 2.66 4 3.32 4 4 C4.66 4.33 5.32 4.66 6 5 C3.03 7.475 3.03 7.475 0 10 C0 6.7 0 3.4 0 0 Z " fill="#E1EBF1" transform="translate(1070,536)"/>
<path d="M0 0 C1.13732426 3.40401948 0.83989957 5.77456664 0.0625 9.25 C-0.13214844 10.14203125 -0.32679688 11.0340625 -0.52734375 11.953125 C-0.68332031 12.62859375 -0.83929687 13.3040625 -1 14 C-1.66 13.34 -2.32 12.68 -3 12 C-2.67176873 7.65093573 -1.80260764 3.9657368 0 0 Z " fill="#2F4250" transform="translate(747,551)"/>
<path d="M0 0 C0.33 0.66 0.66 1.32 1 2 C2.89533342 2.46523063 2.89533342 2.46523063 5.0625 2.625 C6.361875 2.74875 7.66125 2.8725 9 3 C9 3.33 9 3.66 9 4 C4.71 4 0.42 4 -4 4 C-3.34 3.67 -2.68 3.34 -2 3 C-2 2.34 -2 1.68 -2 1 C-1.34 0.67 -0.68 0.34 0 0 Z " fill="#18293A" transform="translate(548,544)"/>
<path d="M0 0 C2 3 2 3 1.75 5.125 C1 7 1 7 -1 8 C-3.125 7.0625 -3.125 7.0625 -5 6 C-4.360625 5.38125 -3.72125 4.7625 -3.0625 4.125 C-0.96116416 2.17402388 -0.96116416 2.17402388 0 0 Z " fill="#20384A" transform="translate(898,428)"/>
<path d="M0 0 C0.66 0 1.32 0 2 0 C2.33 2.64 2.66 5.28 3 8 C2.01 8.33 1.02 8.66 0 9 C-1.125 3.375 -1.125 3.375 0 0 Z " fill="#EFF5F5" transform="translate(807,554)"/>
<path d="M0 0 C0.33 0.99 0.66 1.98 1 3 C-1.97 5.475 -1.97 5.475 -5 8 C-5.33 7.01 -5.66 6.02 -6 5 C-4.02 3.35 -2.04 1.7 0 0 Z " fill="#243849" transform="translate(1077,539)"/>
<path d="M0 0 C2 3 2 3 1.75 5.0625 C1 7 1 7 -1 9 C-1.99 8.67 -2.98 8.34 -4 8 C-3.2884375 7.13375 -3.2884375 7.13375 -2.5625 6.25 C-1.0515133 4.07417916 -0.45963849 2.57397552 0 0 Z " fill="#2E3F4E" transform="translate(870,575)"/>
<path d="M0 0 C2.475 0.99 2.475 0.99 5 2 C5 2.66 5 3.32 5 4 C5.66 4 6.32 4 7 4 C6.67 4.99 6.34 5.98 6 7 C1.125 2.25 1.125 2.25 0 0 Z " fill="#2B3B4A" transform="translate(521,587)"/>
<path d="M0 0 C0.99 0.33 1.98 0.66 3 1 C-0.465 3.97 -0.465 3.97 -4 7 C-3.04065919 3.16263678 -2.76390737 2.40339772 0 0 Z " fill="#172939" transform="translate(991,542)"/>
<path d="M0 0 C-0.99 1.485 -0.99 1.485 -2 3 C-2.66 3 -3.32 3 -4 3 C-4 2.34 -4 1.68 -4 1 C-5.65 1 -7.3 1 -9 1 C-9 0.67 -9 0.34 -9 0 C-5.62182575 -0.84454356 -3.32534757 -1.10844919 0 0 Z " fill="#D2D9DB" transform="translate(948,623)"/>
<path d="M0 0 C1.98 0.99 3.96 1.98 6 3 C5.67 3.66 5.34 4.32 5 5 C3.35 4.67 1.7 4.34 0 4 C0 2.68 0 1.36 0 0 Z " fill="#213748" transform="translate(647,538)"/>
<path d="M0 0 C2.17766075 4.35532149 2.03039555 5.46625958 1 10 C0.34 10 -0.32 10 -1 10 C-0.67 6.7 -0.34 3.4 0 0 Z " fill="#86A08D" transform="translate(802,205)"/>
</svg>
